<?xml version="1.0" encoding="UTF-8"?>
<svg id="Layer_2" data-name="Layer 2" xmlns="http://www.w3.org/2000/svg" viewBox="0 0 592.81 426.86">
  <defs>
    <style>
      .cls-1 {
        fill: none;
        stroke: #231f20;
        stroke-miterlimit: 10;
      }
    </style>
  </defs>
  <g id="Layer_3" data-name="Layer 3">
    <line class="cls-1" x1="23.94" y1="422.46" x2="572.83" y2="422.46"/>
    <line class="cls-1" x1="592.31" y1="348.76" x2="592.31" y2="135.3"/>
    <rect class="cls-1" x="48.4" y="358.85" width="11.86" height="37.38"/>
    <rect class="cls-1" x="79.63" y="358.85" width="11.86" height="37.38"/>
    <rect class="cls-1" x="100.33" y="358.85" width="11.86" height="37.38"/>
    <rect class="cls-1" x="118.3" y="358.85" width="11.86" height="37.38"/>
    <rect class="cls-1" x="149.31" y="358.85" width="11.86" height="37.38"/>
    <line class="cls-1" x1="47.94" y1="359.31" x2="36.22" y2="359.31"/>
    <line class="cls-1" x1="36.22" y1="423.59" x2="36.22" y2="359.31"/>
    <line class="cls-1" x1="52.88" y1="396.68" x2="52.88" y2="422.46"/>
    <line class="cls-1" x1="59.8" y1="359.31" x2="69.68" y2="359.31"/>
    <line class="cls-1" x1="69.68" y1="421.92" x2="69.68" y2="358.77"/>
    <line class="cls-1" x1="85.1" y1="422.46" x2="85.1" y2="396.68"/>
    <line class="cls-1" x1="69.68" y1="359.31" x2="79.17" y2="359.31"/>
    <line class="cls-1" x1="91.03" y1="359.31" x2="99.87" y2="359.31"/>
    <line class="cls-1" x1="111.73" y1="359.31" x2="117.83" y2="359.31"/>
    <line class="cls-1" x1="129.69" y1="359.31" x2="148.84" y2="359.31"/>
    <line class="cls-1" x1="140.83" y1="358.77" x2="140.83" y2="421.92"/>
    <line class="cls-1" x1="123.76" y1="423.59" x2="123.76" y2="396.68"/>
    <line class="cls-1" x1="104.26" y1="422.46" x2="104.26" y2="396.68"/>
    <line class="cls-1" x1="157.35" y1="396.68" x2="157.35" y2="422.46"/>
    <line class="cls-1" x1="160.7" y1="359.31" x2="169.21" y2="359.31"/>
    <line class="cls-1" x1="175.13" y1="396.68" x2="175.13" y2="422.46"/>
    <rect class="cls-1" x="169.53" y="358.85" width="11.86" height="37.38"/>
    <rect class="cls-1" x="200.76" y="358.85" width="11.86" height="37.38"/>
    <rect class="cls-1" x="221.46" y="358.85" width="11.86" height="37.38"/>
    <rect class="cls-1" x="239.43" y="358.85" width="11.86" height="37.38"/>
    <rect class="cls-1" x="270.44" y="358.85" width="11.86" height="37.38"/>
    <line class="cls-1" x1="169.07" y1="358.74" x2="157.35" y2="358.74"/>
    <line class="cls-1" x1="180.93" y1="358.74" x2="190.81" y2="358.74"/>
    <line class="cls-1" x1="190.81" y1="421.92" x2="190.81" y2="358.77"/>
    <line class="cls-1" x1="206.23" y1="421.89" x2="206.23" y2="396.12"/>
    <line class="cls-1" x1="190.81" y1="358.74" x2="200.3" y2="358.74"/>
    <line class="cls-1" x1="212.16" y1="358.74" x2="221" y2="358.74"/>
    <line class="cls-1" x1="232.86" y1="358.74" x2="238.96" y2="358.74"/>
    <line class="cls-1" x1="250.82" y1="358.74" x2="269.97" y2="358.74"/>
    <line class="cls-1" x1="261.96" y1="358.77" x2="261.96" y2="421.92"/>
    <line class="cls-1" x1="244.89" y1="423.02" x2="244.89" y2="396.12"/>
    <line class="cls-1" x1="225.39" y1="421.89" x2="225.39" y2="396.12"/>
    <line class="cls-1" x1="278.48" y1="396.12" x2="278.48" y2="421.89"/>
    <line class="cls-1" x1="281.83" y1="358.74" x2="290.33" y2="358.74"/>
    <rect class="cls-1" x="291.58" y="358.85" width="11.86" height="37.38"/>
    <rect class="cls-1" x="322.81" y="358.85" width="11.86" height="37.38"/>
    <rect class="cls-1" x="343.51" y="358.85" width="11.86" height="37.38"/>
    <rect class="cls-1" x="361.47" y="358.85" width="11.86" height="37.38"/>
    <rect class="cls-1" x="392.48" y="358.85" width="11.86" height="37.38"/>
    <line class="cls-1" x1="291.11" y1="358.74" x2="279.39" y2="358.74"/>
    <line class="cls-1" x1="296.05" y1="396.12" x2="296.05" y2="421.89"/>
    <line class="cls-1" x1="302.97" y1="358.74" x2="312.85" y2="358.74"/>
    <line class="cls-1" x1="312.85" y1="421.92" x2="312.85" y2="358.77"/>
    <line class="cls-1" x1="328.27" y1="421.89" x2="328.27" y2="396.12"/>
    <line class="cls-1" x1="312.85" y1="358.74" x2="322.34" y2="358.74"/>
    <line class="cls-1" x1="334.2" y1="358.74" x2="343.04" y2="358.74"/>
    <line class="cls-1" x1="354.9" y1="358.74" x2="361" y2="358.74"/>
    <line class="cls-1" x1="372.86" y1="358.74" x2="392.01" y2="358.74"/>
    <line class="cls-1" x1="384" y1="358.77" x2="384" y2="421.92"/>
    <line class="cls-1" x1="366.93" y1="423.02" x2="366.93" y2="396.12"/>
    <line class="cls-1" x1="347.44" y1="421.89" x2="347.44" y2="396.12"/>
    <line class="cls-1" x1="400.52" y1="396.12" x2="400.52" y2="421.89"/>
    <line class="cls-1" x1="403.87" y1="358.74" x2="412.38" y2="358.74"/>
    <rect class="cls-1" x="414.39" y="358.85" width="11.86" height="37.38"/>
    <rect class="cls-1" x="445.62" y="358.85" width="11.86" height="37.38"/>
    <rect class="cls-1" x="466.32" y="358.85" width="11.86" height="37.38"/>
    <rect class="cls-1" x="484.29" y="358.85" width="11.86" height="37.38"/>
    <rect class="cls-1" x="515.29" y="358.85" width="11.86" height="37.38"/>
    <line class="cls-1" x1="413.92" y1="358.8" x2="402.2" y2="358.8"/>
    <line class="cls-1" x1="418.86" y1="396.18" x2="418.86" y2="421.95"/>
    <line class="cls-1" x1="425.78" y1="358.8" x2="435.66" y2="358.8"/>
    <line class="cls-1" x1="435.66" y1="421.92" x2="435.66" y2="358.77"/>
    <line class="cls-1" x1="451.08" y1="421.95" x2="451.08" y2="396.18"/>
    <line class="cls-1" x1="435.66" y1="358.8" x2="445.15" y2="358.8"/>
    <line class="cls-1" x1="457.01" y1="358.8" x2="465.85" y2="358.8"/>
    <line class="cls-1" x1="477.71" y1="358.8" x2="483.82" y2="358.8"/>
    <line class="cls-1" x1="495.68" y1="358.8" x2="514.83" y2="358.8"/>
    <line class="cls-1" x1="506.81" y1="358.77" x2="506.81" y2="421.92"/>
    <line class="cls-1" x1="489.75" y1="423.08" x2="489.75" y2="396.18"/>
    <line class="cls-1" x1="470.25" y1="421.95" x2="470.25" y2="396.18"/>
    <line class="cls-1" x1="523.33" y1="396.18" x2="523.33" y2="421.95"/>
    <line class="cls-1" x1="526.69" y1="358.8" x2="535.19" y2="358.8"/>
    <line class="cls-1" x1="541.12" y1="396.18" x2="541.12" y2="421.95"/>
    <line class="cls-1" x1="541.12" y1="396.18" x2="541.12" y2="358.8"/>
    <line class="cls-1" x1="535.19" y1="358.8" x2="541.12" y2="358.8"/>
    <line class="cls-1" x1="560.55" y1="421.89" x2="560.55" y2="358.8"/>
    <line class="cls-1" x1="541.12" y1="358.8" x2="560.55" y2="358.8"/>
    <line class="cls-1" x1="572.83" y1="422.46" x2="581.72" y2="422.46"/>
    <line class="cls-1" x1="581.72" y1="422.46" x2="581.72" y2="358.74"/>
    <line class="cls-1" x1="592.31" y1="348.76" x2="592.31" y2="358.74"/>
    <line class="cls-1" x1="581.72" y1="358.74" x2="592.31" y2="358.74"/>
    <line class="cls-1" x1=".5" y1="383.16" x2="9.77" y2="383.16"/>
    <line class="cls-1" x1="9.77" y1="426.36" x2="9.77" y2="383.16"/>
    <line class="cls-1" x1="23.94" y1="426.36" x2="9.77" y2="426.36"/>
    <line class="cls-1" x1="24.21" y1="422.46" x2="24.21" y2="426.36"/>
    <line class="cls-1" x1="560.55" y1="358.8" x2="36.22" y2="358.8"/>
    <line class="cls-1" x1="12.53" y1="349.21" x2="579.71" y2="349.21"/>
    <line class="cls-1" x1="579.71" y1="349.21" x2="579.71" y2="147.36"/>
    <line class="cls-1" x1="592.31" y1="135.3" x2="592.31" y2=".5"/>
    <line class="cls-1" x1=".5" y1=".5" x2="592.31" y2=".5"/>
    <line class="cls-1" x1="12.53" y1="14.05" x2="579.71" y2="14.05"/>
    <line class="cls-1" x1="579.71" y1="147.36" x2="579.71" y2="14.05"/>
    <line class="cls-1" x1=".5" y1="383.16" x2=".5" y2=".5"/>
    <line class="cls-1" x1="12.53" y1="349.21" x2="12.53" y2="14.05"/>
    <rect class="cls-1" x="27.94" y="112.46" width="524.33" height="11.02" transform="translate(33.75 -61.92) rotate(12.93)"/>
    <rect class="cls-1" x="36.6" y="288.03" width="498.97" height="8.47" transform="translate(-32.12 35.34) rotate(-6.69)"/>
    <rect class="cls-1" x="12.53" y="211.28" width="567.18" height="30.76"/>
  </g>
</svg>