<?xml version="1.0" encoding="UTF-8"?>
<svg id="Layer_2" data-name="Layer 2" xmlns="http://www.w3.org/2000/svg" viewBox="0 0 592.81 1549.02">
  <defs>
    <style>
      .cls-1 {
        fill: none;
        stroke: #231f20;
        stroke-miterlimit: 10;
      }
    </style>
  </defs>
  <g id="Layer_2-2" data-name="Layer 2">
    <line class="cls-1" x1=".5" y1="1505.32" x2=".5" y2=".43"/>
    <line class="cls-1" x1="23.94" y1="1544.62" x2="572.83" y2="1544.62"/>
    <line class="cls-1" x1="592.31" y1="1470.92" x2="592.31" y2="1257.47"/>
    <rect class="cls-1" x="48.4" y="1481.01" width="11.86" height="37.38"/>
    <rect class="cls-1" x="79.63" y="1481.01" width="11.86" height="37.38"/>
    <rect class="cls-1" x="100.33" y="1481.01" width="11.86" height="37.38"/>
    <rect class="cls-1" x="118.3" y="1481.01" width="11.86" height="37.38"/>
    <rect class="cls-1" x="149.31" y="1481.01" width="11.86" height="37.38"/>
    <line class="cls-1" x1="47.94" y1="1481.47" x2="36.22" y2="1481.47"/>
    <line class="cls-1" x1="36.22" y1="1545.75" x2="36.22" y2="1481.47"/>
    <line class="cls-1" x1="52.88" y1="1518.85" x2="52.88" y2="1544.62"/>
    <line class="cls-1" x1="59.8" y1="1481.47" x2="69.68" y2="1481.47"/>
    <line class="cls-1" x1="69.68" y1="1544.08" x2="69.68" y2="1480.93"/>
    <line class="cls-1" x1="85.1" y1="1544.62" x2="85.1" y2="1518.85"/>
    <line class="cls-1" x1="69.68" y1="1481.47" x2="79.17" y2="1481.47"/>
    <line class="cls-1" x1="91.03" y1="1481.47" x2="99.87" y2="1481.47"/>
    <line class="cls-1" x1="111.73" y1="1481.47" x2="117.83" y2="1481.47"/>
    <line class="cls-1" x1="129.69" y1="1481.47" x2="148.84" y2="1481.47"/>
    <line class="cls-1" x1="140.83" y1="1480.93" x2="140.83" y2="1544.08"/>
    <line class="cls-1" x1="123.76" y1="1545.75" x2="123.76" y2="1518.85"/>
    <line class="cls-1" x1="104.26" y1="1544.62" x2="104.26" y2="1518.85"/>
    <line class="cls-1" x1="157.35" y1="1518.85" x2="157.35" y2="1544.62"/>
    <line class="cls-1" x1="160.7" y1="1481.47" x2="169.21" y2="1481.47"/>
    <line class="cls-1" x1="175.13" y1="1518.85" x2="175.13" y2="1544.62"/>
    <rect class="cls-1" x="169.53" y="1481.01" width="11.86" height="37.38"/>
    <rect class="cls-1" x="200.76" y="1481.01" width="11.86" height="37.38"/>
    <rect class="cls-1" x="221.46" y="1481.01" width="11.86" height="37.38"/>
    <rect class="cls-1" x="239.43" y="1481.01" width="11.86" height="37.38"/>
    <rect class="cls-1" x="270.44" y="1481.01" width="11.86" height="37.38"/>
    <line class="cls-1" x1="169.07" y1="1480.9" x2="157.35" y2="1480.9"/>
    <line class="cls-1" x1="180.93" y1="1480.9" x2="190.81" y2="1480.9"/>
    <line class="cls-1" x1="190.81" y1="1544.08" x2="190.81" y2="1480.93"/>
    <line class="cls-1" x1="206.23" y1="1544.05" x2="206.23" y2="1518.28"/>
    <line class="cls-1" x1="190.81" y1="1480.9" x2="200.3" y2="1480.9"/>
    <line class="cls-1" x1="212.16" y1="1480.9" x2="221" y2="1480.9"/>
    <line class="cls-1" x1="232.86" y1="1480.9" x2="238.96" y2="1480.9"/>
    <line class="cls-1" x1="250.82" y1="1480.9" x2="269.97" y2="1480.9"/>
    <line class="cls-1" x1="261.96" y1="1480.93" x2="261.96" y2="1544.08"/>
    <line class="cls-1" x1="244.89" y1="1545.18" x2="244.89" y2="1518.28"/>
    <line class="cls-1" x1="225.39" y1="1544.05" x2="225.39" y2="1518.28"/>
    <line class="cls-1" x1="278.48" y1="1518.28" x2="278.48" y2="1544.05"/>
    <line class="cls-1" x1="281.83" y1="1480.9" x2="290.33" y2="1480.9"/>
    <line class="cls-1" x1="296.26" y1="1518.28" x2="296.26" y2="1544.05"/>
    <rect class="cls-1" x="291.58" y="1481.01" width="11.86" height="37.38"/>
    <rect class="cls-1" x="322.81" y="1481.01" width="11.86" height="37.38"/>
    <rect class="cls-1" x="343.51" y="1481.01" width="11.86" height="37.38"/>
    <rect class="cls-1" x="361.47" y="1481.01" width="11.86" height="37.38"/>
    <rect class="cls-1" x="392.48" y="1481.01" width="11.86" height="37.38"/>
    <line class="cls-1" x1="291.11" y1="1480.9" x2="279.39" y2="1480.9"/>
    <line class="cls-1" x1="302.97" y1="1480.9" x2="312.85" y2="1480.9"/>
    <line class="cls-1" x1="312.85" y1="1544.08" x2="312.85" y2="1480.93"/>
    <line class="cls-1" x1="328.27" y1="1544.05" x2="328.27" y2="1518.28"/>
    <line class="cls-1" x1="312.85" y1="1480.9" x2="322.34" y2="1480.9"/>
    <line class="cls-1" x1="334.2" y1="1480.9" x2="343.04" y2="1480.9"/>
    <line class="cls-1" x1="354.9" y1="1480.9" x2="361" y2="1480.9"/>
    <line class="cls-1" x1="372.86" y1="1480.9" x2="392.01" y2="1480.9"/>
    <line class="cls-1" x1="384" y1="1480.93" x2="384" y2="1544.08"/>
    <line class="cls-1" x1="366.93" y1="1545.18" x2="366.93" y2="1518.28"/>
    <line class="cls-1" x1="347.44" y1="1544.05" x2="347.44" y2="1518.28"/>
    <line class="cls-1" x1="400.52" y1="1518.28" x2="400.52" y2="1544.05"/>
    <line class="cls-1" x1="403.87" y1="1480.9" x2="412.38" y2="1480.9"/>
    <rect class="cls-1" x="414.39" y="1481.01" width="11.86" height="37.38"/>
    <rect class="cls-1" x="445.62" y="1481.01" width="11.86" height="37.38"/>
    <rect class="cls-1" x="466.32" y="1481.01" width="11.86" height="37.38"/>
    <rect class="cls-1" x="484.29" y="1481.01" width="11.86" height="37.38"/>
    <rect class="cls-1" x="515.29" y="1481.01" width="11.86" height="37.38"/>
    <line class="cls-1" x1="413.92" y1="1480.96" x2="402.2" y2="1480.96"/>
    <line class="cls-1" x1="418.86" y1="1518.34" x2="418.86" y2="1544.11"/>
    <line class="cls-1" x1="425.78" y1="1480.96" x2="435.66" y2="1480.96"/>
    <line class="cls-1" x1="435.66" y1="1544.08" x2="435.66" y2="1480.93"/>
    <line class="cls-1" x1="451.08" y1="1544.11" x2="451.08" y2="1518.34"/>
    <line class="cls-1" x1="435.66" y1="1480.96" x2="445.15" y2="1480.96"/>
    <line class="cls-1" x1="457.01" y1="1480.96" x2="465.85" y2="1480.96"/>
    <line class="cls-1" x1="477.71" y1="1480.96" x2="483.82" y2="1480.96"/>
    <line class="cls-1" x1="495.68" y1="1480.96" x2="514.83" y2="1480.96"/>
    <line class="cls-1" x1="506.81" y1="1480.93" x2="506.81" y2="1544.08"/>
    <line class="cls-1" x1="489.75" y1="1545.24" x2="489.75" y2="1518.34"/>
    <line class="cls-1" x1="470.25" y1="1544.11" x2="470.25" y2="1518.34"/>
    <line class="cls-1" x1="523.33" y1="1518.34" x2="523.33" y2="1544.11"/>
    <line class="cls-1" x1="526.69" y1="1480.96" x2="535.19" y2="1480.96"/>
    <line class="cls-1" x1="541.12" y1="1518.34" x2="541.12" y2="1544.11"/>
    <line class="cls-1" x1="541.12" y1="1518.34" x2="541.12" y2="1480.96"/>
    <line class="cls-1" x1="535.19" y1="1480.96" x2="541.12" y2="1480.96"/>
    <line class="cls-1" x1="560.55" y1="1544.05" x2="560.55" y2="1480.96"/>
    <line class="cls-1" x1="541.12" y1="1480.96" x2="560.55" y2="1480.96"/>
    <line class="cls-1" x1="572.83" y1="1544.62" x2="581.72" y2="1544.62"/>
    <line class="cls-1" x1="581.72" y1="1544.62" x2="581.72" y2="1480.9"/>
    <line class="cls-1" x1="592.31" y1="1470.92" x2="592.31" y2="1480.9"/>
    <line class="cls-1" x1="581.72" y1="1480.9" x2="592.31" y2="1480.9"/>
    <line class="cls-1" x1=".5" y1="1505.32" x2="9.77" y2="1505.32"/>
    <line class="cls-1" x1="9.77" y1="1548.52" x2="9.77" y2="1505.32"/>
    <line class="cls-1" x1="23.94" y1="1548.52" x2="9.77" y2="1548.52"/>
    <line class="cls-1" x1="24.21" y1="1544.62" x2="24.21" y2="1548.52"/>
    <line class="cls-1" x1="148.74" y1="86.42" x2=".5" y2=".43"/>
    <path class="cls-1" d="M148.74,86.42c100.34,926.46,294.16,1066.21,443.57,1171.05"/>
    <circle class="cls-1" cx="112.77" cy="1091.35" r="37.84"/>
    <line class="cls-1" x1="21.24" y1="78.09" x2="58.51" y2="114.23"/>
    <path class="cls-1" d="M58.51,114.23c38.52,291.11,127.36,1080.84,492.33,1193.79"/>
    <path class="cls-1" d="M39.87,555.36c83.89,477.74,264.8,752.66,520.67,789.46"/>
    <line class="cls-1" x1="24.21" y1="1290.32" x2="568.97" y2="1355.82"/>
    <line class="cls-1" x1="569.85" y1="1390.08" x2="568.97" y2="1355.82"/>
    <line class="cls-1" x1="24.21" y1="1290.32" x2="23.94" y2="1323.07"/>
    <line class="cls-1" x1="569.85" y1="1390.08" x2="23.94" y2="1323.07"/>
    <line class="cls-1" x1="560.55" y1="1480.96" x2="36.22" y2="1480.96"/>
    <line class="cls-1" x1="12.53" y1="15.03" x2="12.53" y2="1471.37"/>
    <line class="cls-1" x1="12.53" y1="1471.37" x2="579.71" y2="1471.37"/>
    <line class="cls-1" x1="579.71" y1="1471.37" x2="579.71" y2="1269.52"/>
    <path class="cls-1" d="M128.33,82.9c100.34,926.46,301.97,1082.35,451.38,1187.2"/>
    <line class="cls-1" x1="12.53" y1="15.03" x2="128.33" y2="82.9"/>
    <rect class="cls-1" x="24.21" y="1396.59" width="545.2" height="13.55" transform="translate(-35.79 8.05) rotate(-1.47)"/>
  </g>
</svg>